<svg width="248" height="86" viewBox="0 0 248 86" fill="none" xmlns="http://www.w3.org/2000/svg">
<path d="M7.60861 73.8734C6.15635 73.8734 4.85141 73.6208 3.69381 73.1157C2.55725 72.5895 1.66274 71.8739 1.01027 70.9689C0.357805 70.0428 0.0210473 68.9799 0 67.7802H3.06239C3.16763 68.8115 3.58857 69.685 4.32523 70.4006C5.08293 71.0952 6.17739 71.4424 7.60861 71.4424C8.97669 71.4424 10.0501 71.1057 10.8289 70.4322C11.6287 69.7376 12.0286 68.8536 12.0286 67.7802C12.0286 66.9383 11.797 66.2543 11.334 65.7281C10.871 65.2019 10.2922 64.802 9.59759 64.5284C8.90303 64.2548 7.96642 63.9601 6.78777 63.6444C5.3355 63.2656 4.16737 62.8867 3.28339 62.5078C2.42044 62.129 1.67326 61.5397 1.04184 60.7399C0.431471 59.919 0.126284 58.8246 0.126284 57.4565C0.126284 56.2568 0.431471 55.1939 1.04184 54.2678C1.65222 53.3417 2.50463 52.6261 3.5991 52.121C4.7146 51.6158 5.98797 51.3633 7.41919 51.3633C9.48183 51.3633 11.1656 51.8789 12.4706 52.9103C13.7965 53.9416 14.5437 55.3097 14.7121 57.0145H11.555C11.4498 56.1726 11.0078 55.4359 10.229 54.8045C9.45026 54.1521 8.41894 53.8258 7.13505 53.8258C5.93535 53.8258 4.95665 54.1415 4.19895 54.773C3.44124 55.3833 3.06239 56.2463 3.06239 57.3618C3.06239 58.1616 3.28339 58.814 3.72538 59.3192C4.18842 59.8243 4.74618 60.2137 5.39864 60.4873C6.07216 60.7399 7.00877 61.0345 8.20846 61.3713C9.66073 61.7712 10.8289 62.1711 11.7128 62.571C12.5968 62.9498 13.3545 63.5497 13.986 64.3705C14.6174 65.1703 14.9331 66.2648 14.9331 67.6539C14.9331 68.7273 14.649 69.7376 14.0807 70.6847C13.5124 71.6319 12.6705 72.4001 11.555 72.9894C10.4395 73.5788 9.12402 73.8734 7.60861 73.8734Z" fill="#FF6B00"/>
<path d="M41.4816 51.8053V73.6524H38.6086V57.3618L31.3473 73.6524H29.3268L22.0339 57.3302V73.6524H19.1609V51.8053H22.2549L30.337 69.8639L38.4192 51.8053H41.4816Z" fill="#FF6B00"/>
<path d="M83.4792 59.4393L90.2312 51.5465H95.7037L86.1923 62.6303L95.642 73.6524H90.2004L83.4792 65.8213L76.7888 73.6524H71.3317L80.7661 62.6303L71.3009 51.5465H76.7272L83.4792 59.4393Z" fill="black"/>
<path d="M117.532 73.6524H103.072C102.702 73.6524 102.302 73.6113 101.87 73.5291C101.449 73.4366 101.027 73.2979 100.606 73.1129C100.195 72.9279 99.7991 72.6915 99.4188 72.4038C99.0386 72.1057 98.6995 71.7512 98.4014 71.3401C98.1137 70.9187 97.8824 70.4357 97.7077 69.891C97.533 69.3361 97.4457 68.7143 97.4457 68.0257V57.1732C97.4457 56.8032 97.4868 56.4076 97.569 55.9862C97.6615 55.5546 97.8002 55.1332 97.9852 54.7221C98.1702 54.3008 98.4117 53.9 98.7097 53.5197C99.0078 53.1395 99.3623 52.8055 99.7734 52.5177C100.195 52.2197 100.678 51.9833 101.222 51.8086C101.767 51.6339 102.384 51.5465 103.072 51.5465H117.532V55.5546H103.072C102.548 55.5546 102.147 55.6933 101.87 55.9708C101.592 56.2483 101.454 56.6594 101.454 57.204V68.0257C101.454 68.5396 101.592 68.9404 101.87 69.2282C102.158 69.5056 102.558 69.6444 103.072 69.6444H117.532V73.6524Z" fill="black"/>
<path d="M141.627 73.6524H123.344C123.056 73.6524 122.789 73.601 122.542 73.4983C122.296 73.3955 122.08 73.2568 121.895 73.082C121.72 72.8971 121.581 72.6812 121.478 72.4346C121.376 72.1879 121.324 71.9207 121.324 71.633V51.5465H125.332V69.6444H141.627V73.6524Z" fill="black"/>
<path d="M165.058 71.633C165.058 71.9207 165.007 72.1879 164.904 72.4346C164.801 72.6812 164.657 72.8971 164.472 73.082C164.287 73.2568 164.072 73.3955 163.825 73.4983C163.578 73.601 163.316 73.6524 163.039 73.6524H154.005C153.152 73.6524 152.289 73.5599 151.415 73.3749C150.542 73.19 149.694 72.9073 148.872 72.5271C148.06 72.1366 147.294 71.6433 146.575 71.0472C145.856 70.4511 145.224 69.7471 144.679 68.9353C144.144 68.1131 143.723 67.1779 143.415 66.1296C143.106 65.0711 142.952 63.8944 142.952 62.5995V51.5465H146.96V62.5995C146.96 63.73 147.115 64.6857 147.423 65.4668C147.741 66.2478 148.142 66.9004 148.625 67.4245C149.108 67.9487 149.638 68.3598 150.213 68.6578C150.789 68.9558 151.333 69.1768 151.847 69.3207C152.371 69.4645 152.829 69.557 153.219 69.5981C153.62 69.629 153.882 69.6444 154.005 69.6444H161.05V51.5465H165.058V71.633Z" fill="black"/>
<path d="M190.972 67.1471C190.972 67.9384 190.869 68.6526 190.663 69.2898C190.468 69.9167 190.206 70.4717 189.877 70.9547C189.548 71.4377 189.163 71.8488 188.721 72.1879C188.279 72.5271 187.822 72.8046 187.349 73.0204C186.876 73.2362 186.393 73.3955 185.9 73.4983C185.417 73.601 184.96 73.6524 184.528 73.6524H169.066V69.6444H184.528C185.299 69.6444 185.895 69.4183 186.316 68.9661C186.748 68.5139 186.964 67.9076 186.964 67.1471C186.964 66.7771 186.907 66.4379 186.794 66.1296C186.681 65.8213 186.517 65.5541 186.301 65.328C186.095 65.1019 185.838 64.9272 185.53 64.8039C185.232 64.6806 184.898 64.6189 184.528 64.6189H175.31C174.662 64.6189 173.963 64.5059 173.213 64.2798C172.463 64.0434 171.764 63.6683 171.116 63.1544C170.479 62.6406 169.945 61.9674 169.513 61.135C169.092 60.3026 168.881 59.2851 168.881 58.0827C168.881 56.8803 169.092 55.868 169.513 55.0459C169.945 54.2134 170.479 53.5403 171.116 53.0264C171.764 52.5023 172.463 52.1272 173.213 51.9011C173.963 51.6647 174.662 51.5465 175.31 51.5465H188.952V55.5546H175.31C174.549 55.5546 173.953 55.7858 173.521 56.2483C173.1 56.7107 172.889 57.3222 172.889 58.0827C172.889 58.8535 173.1 59.465 173.521 59.9172C173.953 60.3591 174.549 60.58 175.31 60.58H184.559C184.99 60.5903 185.448 60.652 185.931 60.765C186.414 60.8678 186.892 61.0322 187.364 61.2583C187.847 61.4844 188.305 61.7722 188.736 62.1216C189.168 62.4607 189.548 62.8718 189.877 63.3548C190.216 63.8379 190.484 64.3928 190.679 65.0197C190.874 65.6466 190.972 66.3557 190.972 67.1471Z" fill="black"/>
<path d="M198.34 73.6524H194.332V51.5465H198.34V73.6524Z" fill="black"/>
<path d="M225.148 51.5465L214.681 72.8662C214.516 73.1951 214.27 73.4572 213.941 73.6524C213.622 73.858 213.268 73.9607 212.877 73.9607C212.497 73.9607 212.142 73.858 211.814 73.6524C211.495 73.4572 211.248 73.1951 211.074 72.8662L200.622 51.5465H205.108L212.877 67.4708L220.677 51.5465H225.148Z" fill="black"/>
<path d="M245.589 64.6189H232.933V60.58H245.589V64.6189ZM247.393 73.6524H232.933C232.378 73.6524 231.771 73.5548 231.114 73.3595C230.456 73.1643 229.845 72.8457 229.279 72.4038C228.724 71.9516 228.257 71.3709 227.876 70.6618C227.507 69.9424 227.322 69.0637 227.322 68.0257V53.566C227.322 53.2885 227.373 53.0264 227.476 52.7798C227.578 52.5331 227.717 52.3173 227.892 52.1323C228.077 51.9473 228.293 51.8035 228.539 51.7007C228.786 51.5979 229.053 51.5465 229.341 51.5465H247.393V55.5546H231.33V68.0257C231.33 68.5499 231.468 68.9507 231.746 69.2282C232.023 69.5056 232.429 69.6444 232.964 69.6444H247.393V73.6524Z" fill="black"/>
<path d="M130.859 21.6518L130.859 32.5967L93.3456 10.9449L55.8317 32.5967L55.8317 21.6519L93.3456 0.000110091L130.859 21.6518Z" fill="#FF7A00"/>
<path d="M168.348 21.6518L168.348 32.5967L130.834 10.9449L93.32 32.5967L93.32 21.6519L130.834 0.000110091L168.348 21.6518Z" fill="#ABABAB" fill-opacity="0.5"/>
<path d="M205.832 21.6518L205.832 32.5967L168.318 10.9449L130.804 32.5967L130.804 21.6519L168.318 0.000110091L205.832 21.6518Z" fill="#F40000"/>
<path d="M49.9253 50.6211L53.457 50.6211L46.4703 62.7832L53.457 74.9453L49.9253 74.9453L42.9385 62.7832L49.9253 50.6211Z" fill="#FF7A00"/>
<path d="M72.9051 46.5374L75.1523 50.4297L57.3658 50.4321L48.4705 65.8345L46.2233 61.9422L55.1186 46.5399L72.9051 46.5374Z" fill="#F40000"/>
<path d="M45.7958 62.7487L48.043 58.8564L56.9383 74.2588L74.7248 74.2612L72.4776 78.1535L54.6911 78.1511L45.7958 62.7487Z" fill="#F40000"/>
<path d="M72.6974 65.8484L58.0601 62.4942L72.6974 59.2002C72.6974 59.2002 75.9778 62.4942 75.8102 62.4942L72.6974 65.8484Z" fill="#FF6B00"/>
</svg>
