<svg width="198" height="198" viewBox="0 0 198 198" fill="none" xmlns="http://www.w3.org/2000/svg">
<path d="M34.8047 36.0618L59.9646 61.2218C64.9943 56.0073 71.0173 51.8529 77.6783 49.0036C84.3393 46.1543 91.5035 44.6678 98.7483 44.6318C105.993 44.5957 113.172 46.0109 119.861 48.7938C126.55 51.5767 132.614 55.6709 137.695 60.835L162.832 35.6635C154.447 27.2037 144.463 20.4957 133.461 15.9297C122.46 11.3637 110.66 9.03083 98.7489 9.06682C86.8376 9.1028 75.0523 11.5069 64.0786 16.1393C53.1049 20.7717 43.1619 27.5399 34.8279 36.0502L34.8047 36.0618Z" fill="#F0432C"/>
<path d="M35.1334 162.329L60.2701 137.192C55.2419 132.126 51.2626 126.117 48.5601 119.51C45.8576 112.903 44.485 105.828 44.5209 98.6897C44.5568 91.5515 46.0006 84.4906 48.7694 77.9112C51.5383 71.3318 55.5779 65.3633 60.6568 60.3475L35.5046 35.1914C27.1234 43.5112 20.4645 53.4015 15.9086 64.2967C11.3527 75.192 8.98921 86.8784 8.9533 98.6878C8.91738 110.497 11.2097 122.198 15.6993 133.121C20.1888 144.043 26.7875 153.974 35.1179 162.345L35.1334 162.329Z" fill="#FFBF00"/>
<path d="M116.781 116.728V117.099H117.152L116.781 116.728Z" fill="#24AA49"/>
<path d="M98.8066 188.8C110.632 188.816 122.343 186.489 133.265 181.956C144.186 177.423 154.103 170.772 162.441 162.387L137.285 137.224C132.243 142.296 126.247 146.321 119.644 149.068C113.04 151.815 105.959 153.229 98.8066 153.229C91.6546 153.229 84.573 151.815 77.9694 149.068C71.3658 146.321 65.3704 142.296 60.3281 137.224L35.1914 162.36C43.5255 170.748 53.4375 177.402 64.3558 181.94C75.2742 186.478 86.9828 188.809 98.8066 188.8Z" fill="#24AA49"/>
<path d="M187.311 81.3389L117.152 81.4355V117.099H150.348C147.6 124.813 143.147 131.807 137.32 137.56L162.476 162.72C173.008 152.257 180.788 139.35 185.122 125.151C189.455 110.951 190.207 95.8998 187.311 81.3389Z" fill="#3384FC"/>
</svg>
