<svg width="12" height="8" viewBox="0 0 12 8" fill="none" xmlns="http://www.w3.org/2000/svg">
<path d="M6.399 7.57297L11.973 0.436516C11.9876 0.417868 11.9968 0.395458 11.9993 0.371858C12.0018 0.348259 11.9976 0.324428 11.9872 0.303102C11.9768 0.281776 11.9606 0.26382 11.9404 0.251296C11.9202 0.238772 11.897 0.232189 11.8732 0.232301L10.6495 0.232301C10.572 0.232301 10.4975 0.268712 10.4501 0.328868L6.00007 6.0279L1.55008 0.328868C1.50258 0.267129 1.42818 0.232301 1.35061 0.232301L0.126901 0.232301C0.0208359 0.232301 -0.0377378 0.354197 0.0271683 0.436516L5.60113 7.57297C5.64845 7.63362 5.70897 7.68269 5.7781 7.71644C5.84723 7.75019 5.92314 7.76773 6.00007 7.76773C6.07699 7.76773 6.15291 7.75019 6.22203 7.71644C6.29116 7.68269 6.35168 7.63362 6.399 7.57297Z" fill="#D9D9D9"/>
</svg>
