<svg width="21" height="21" viewBox="0 0 21 21" fill="none" xmlns="http://www.w3.org/2000/svg">
<g opacity="0.5">
<path d="M9.84375 14.4375H13.125C13.4731 14.4375 13.8069 14.2992 14.0531 14.0531C14.2992 13.8069 14.4375 13.4731 14.4375 13.125V12.4688H12.4688C12.2947 12.4688 12.1278 12.3996 12.0047 12.2765C11.8816 12.1535 11.8125 11.9865 11.8125 11.8125C11.8125 11.6385 11.8816 11.4715 12.0047 11.3485C12.1278 11.2254 12.2947 11.1562 12.4688 11.1562H14.4375V9.1875H12.4688C12.2947 9.1875 12.1278 9.11836 12.0047 8.99529C11.8816 8.87222 11.8125 8.7053 11.8125 8.53125C11.8125 8.3572 11.8816 8.19028 12.0047 8.06721C12.1278 7.94414 12.2947 7.875 12.4688 7.875H14.4375V5.90625H12.4688C12.2947 5.90625 12.1278 5.83711 12.0047 5.71404C11.8816 5.59097 11.8125 5.42405 11.8125 5.25C11.8125 5.07595 11.8816 4.90903 12.0047 4.78596C12.1278 4.66289 12.2947 4.59375 12.4688 4.59375H14.4375V3.9375C14.4375 3.5894 14.2992 3.25556 14.0531 3.00942C13.8069 2.76328 13.4731 2.625 13.125 2.625H7.875C7.5269 2.625 7.19306 2.76328 6.94692 3.00942C6.70078 3.25556 6.5625 3.5894 6.5625 3.9375V4.59375H8.53125C8.7053 4.59375 8.87222 4.66289 8.99529 4.78596C9.11836 4.90903 9.1875 5.07595 9.1875 5.25C9.1875 5.42405 9.11836 5.59097 8.99529 5.71404C8.87222 5.83711 8.7053 5.90625 8.53125 5.90625H6.5625V7.875H8.53125C8.7053 7.875 8.87222 7.94414 8.99529 8.06721C9.11836 8.19028 9.1875 8.3572 9.1875 8.53125C9.1875 8.7053 9.11836 8.87222 8.99529 8.99529C8.87222 9.11836 8.7053 9.1875 8.53125 9.1875H6.5625V11.1562H8.53125C8.7053 11.1562 8.87222 11.2254 8.99529 11.3485C9.11836 11.4715 9.1875 11.6385 9.1875 11.8125C9.1875 11.9865 9.11836 12.1535 8.99529 12.2765C8.87222 12.3996 8.7053 12.4688 8.53125 12.4688H6.5625V13.125C6.5625 13.4731 6.70078 13.8069 6.94692 14.0531C7.19306 14.2992 7.5269 14.4375 7.875 14.4375H9.84375ZM11.1562 15.75V18.375H15.0938C15.2678 18.375 15.4347 18.4441 15.5578 18.5672C15.6809 18.6903 15.75 18.8572 15.75 19.0312C15.75 19.2053 15.6809 19.3722 15.5578 19.4953C15.4347 19.6184 15.2678 19.6875 15.0938 19.6875H5.90625C5.7322 19.6875 5.56528 19.6184 5.44221 19.4953C5.31914 19.3722 5.25 19.2053 5.25 19.0312C5.25 18.8572 5.31914 18.6903 5.44221 18.5672C5.56528 18.4441 5.7322 18.375 5.90625 18.375H9.84375V15.75H7.875C7.17881 15.75 6.51113 15.4734 6.01884 14.9812C5.52656 14.4889 5.25 13.8212 5.25 13.125V3.9375C5.25 3.24131 5.52656 2.57363 6.01884 2.08134C6.51113 1.58906 7.17881 1.3125 7.875 1.3125H13.125C13.8212 1.3125 14.4889 1.58906 14.9812 2.08134C15.4734 2.57363 15.75 3.24131 15.75 3.9375V13.125C15.75 13.8212 15.4734 14.4889 14.9812 14.9812C14.4889 15.4734 13.8212 15.75 13.125 15.75H11.1562Z" fill="black"/>
</g>
</svg>
