<svg width="22" height="21" viewBox="0 0 22 21" fill="none" xmlns="http://www.w3.org/2000/svg">
<path d="M14.2083 12.25H13.4842L13.2275 12.0138C14.1569 10.9848 14.6677 9.67111 14.6667 8.3125C14.6667 7.18762 14.3172 6.088 13.6625 5.1527C13.0078 4.21739 12.0772 3.48841 10.9885 3.05794C9.89975 2.62746 8.70173 2.51483 7.54592 2.73429C6.39012 2.95374 5.32845 3.49542 4.49516 4.29083C3.66187 5.08624 3.09439 6.09966 2.86449 7.20293C2.63459 8.30619 2.75258 9.44976 3.20355 10.489C3.65453 11.5283 4.41822 12.4165 5.39806 13.0415C6.37791 13.6664 7.52989 14 8.70834 14C10.1842 14 11.5408 13.4838 12.5858 12.6263L12.8333 12.8713V13.5625L17.4167 17.9288L18.7825 16.625L14.2083 12.25ZM8.70834 12.25C6.42584 12.25 4.58334 10.4913 4.58334 8.3125C4.58334 6.13375 6.42584 4.375 8.70834 4.375C10.9908 4.375 12.8333 6.13375 12.8333 8.3125C12.8333 10.4913 10.9908 12.25 8.70834 12.25Z" fill="#737C97"/>
</svg>
