<svg width="52" height="52" viewBox="0 0 52 52" fill="none" xmlns="http://www.w3.org/2000/svg">
<circle cx="25.7789" cy="25.7789" r="18.7288" fill="white"/>
<circle cx="25.7769" cy="25.78" r="13.8814" fill="white"/>
<circle cx="25.7769" cy="25.78" r="15.3814" stroke="#7A7A7A" stroke-opacity="0.74" stroke-width="3"/>
<rect x="18.0682" y="19.3898" width="15.4237" height="14.5424" fill="white"/>
<path d="M28.7066 25.7561C28.7066 27.2707 27.4958 28.4978 26.0009 28.4978C24.5059 28.4978 23.2951 27.2707 23.2951 25.7572C23.2951 24.2437 24.5048 23.0155 26.0009 23.0155C27.497 23.0155 28.7066 24.2426 28.7066 25.7561ZM22.3163 18.671C22.6596 17.9751 23.3624 17.5344 24.1313 17.5344H27.8704C28.6393 17.5344 29.3433 17.9751 29.6855 18.671L30.4776 20.2761H31.4135C32.9073 20.2761 34.1193 21.5032 34.1193 23.0167V29.8709C34.1193 31.3821 32.9073 32.6103 31.4135 32.6103H20.5882C19.0944 32.6103 17.8824 31.3833 17.8824 29.8686V23.0155C17.8824 21.502 19.0944 20.275 20.5882 20.275H21.523L22.3163 18.671ZM30.0601 25.7572C30.0601 23.4875 28.2427 21.647 26.0009 21.647C23.759 21.647 21.9417 23.4875 21.9417 25.7584C21.9417 28.0292 23.759 29.8698 26.0009 29.8698C28.2427 29.8698 30.0601 28.0292 30.0601 25.7584" fill="#666666" fill-opacity="0.37"/>
</svg>
