<svg width="42" height="42" viewBox="0 0 42 42" fill="none" xmlns="http://www.w3.org/2000/svg">
<path fill-rule="evenodd" clip-rule="evenodd" d="M21.9842 5.59976H20.0137L18.885 10.1113L17.7527 10.4613C17.0929 10.6646 16.4537 10.9294 15.8435 11.2523L14.7952 11.807L10.8052 9.41301L9.41221 10.8078L11.8062 14.7978L11.2515 15.8443C10.928 16.4544 10.6626 17.0937 10.4587 17.7535L10.1105 18.8858L5.59896 20.0145V21.985L10.1105 23.1138L10.4605 24.246C10.6623 24.9087 10.926 25.5451 11.2515 26.1553L11.8062 27.2035L9.41221 31.1935L10.807 32.5865L14.797 30.1925L15.8435 30.7473C16.4536 31.0716 17.09 31.3358 17.7527 31.54L18.885 31.8883L20.0137 36.3998H21.9842L23.113 31.8883L24.2452 31.5383C24.905 31.3349 25.5442 31.0701 26.1545 30.7473L27.2027 30.1925L31.1927 32.5865L32.5857 31.1918L30.1917 27.2018L30.7465 26.1553C31.0708 25.5451 31.335 24.9087 31.5392 24.246L31.8875 23.1138L36.399 21.985V20.0145L31.8875 18.8858L31.5375 17.7535C31.3342 17.0937 31.0693 16.4545 30.7465 15.8443L30.1917 14.796L32.5857 10.806L31.191 9.41301L27.201 11.807L26.1545 11.2523C25.5443 10.9288 24.9051 10.6634 24.2452 10.4595L23.113 10.1113L21.9842 5.59976ZM27.138 9.39726L30.3457 7.47226C30.6802 7.27164 31.0721 7.18851 31.4592 7.23607C31.8463 7.28363 32.2065 7.45914 32.4825 7.73476L34.264 9.51626C34.5396 9.79223 34.7151 10.1524 34.7626 10.5395C34.8102 10.9266 34.7271 11.3185 34.5265 11.653L32.6015 14.8608C32.9865 15.5841 33.3015 16.3424 33.5465 17.1358L37.1742 18.044C37.5526 18.1388 37.8885 18.3573 38.1286 18.6649C38.3686 18.9724 38.499 19.3514 38.499 19.7415V22.258C38.499 22.6481 38.3686 23.0271 38.1286 23.3346C37.8885 23.6422 37.5526 23.8607 37.1742 23.9555L33.5465 24.8638C33.3015 25.6571 32.9865 26.4154 32.6015 27.1388L34.5265 30.3465C34.7271 30.681 34.8102 31.0729 34.7626 31.46C34.7151 31.8471 34.5396 32.2073 34.264 32.4833L32.4825 34.2648C32.2065 34.5404 31.8463 34.7159 31.4592 34.7634C31.0721 34.811 30.6802 34.7279 30.3457 34.5273L27.138 32.6023C26.4146 32.9873 25.6563 33.3023 24.863 33.5473L23.9547 37.175C23.8599 37.5534 23.6414 37.8893 23.3338 38.1294C23.0263 38.3694 22.6473 38.4997 22.2572 38.4998H19.7407C19.3506 38.4997 18.9717 38.3694 18.6641 38.1294C18.3565 37.8893 18.138 37.5534 18.0432 37.175L17.135 33.5473C16.3487 33.3043 15.587 32.9879 14.86 32.6023L11.6522 34.5273C11.3177 34.7279 10.9258 34.811 10.5387 34.7634C10.1516 34.7159 9.79144 34.5404 9.51546 34.2648L7.73396 32.4833C7.45835 32.2073 7.28283 31.8471 7.23527 31.46C7.18772 31.0729 7.27085 30.681 7.47146 30.3465L9.39646 27.1388C9.01084 26.4117 8.69444 25.65 8.45146 24.8638L4.82371 23.9555C4.44557 23.8608 4.10988 23.6425 3.8699 23.3353C3.62991 23.0281 3.49936 22.6496 3.49896 22.2598V19.7433C3.49897 19.3531 3.62934 18.9742 3.86936 18.6666C4.10938 18.3591 4.44528 18.1406 4.82371 18.0458L8.45146 17.1375C8.69646 16.3442 9.01146 15.5858 9.39646 14.8625L7.47146 11.6548C7.27085 11.3203 7.18772 10.9284 7.23527 10.5412C7.28283 10.1541 7.45835 9.79398 7.73396 9.51801L9.51546 7.73476C9.79144 7.45914 10.1516 7.28363 10.5387 7.23607C10.9258 7.18851 11.3177 7.27164 11.6522 7.47226L14.86 9.39726C15.5833 9.01226 16.3416 8.69726 17.135 8.45226L18.0432 4.82451C18.1379 4.44636 18.3562 4.11068 18.6634 3.87069C18.9706 3.6307 19.3491 3.50016 19.739 3.49976H22.2555C22.6456 3.49977 23.0245 3.63013 23.3321 3.87015C23.6396 4.11017 23.8582 4.44607 23.953 4.82451L24.8612 8.45226C25.6545 8.69726 26.4129 9.01226 27.1362 9.39726H27.138ZM20.999 25.8998C22.2985 25.8998 23.5449 25.3835 24.4638 24.4646C25.3827 23.5457 25.899 22.2993 25.899 20.9998C25.899 19.7002 25.3827 18.4539 24.4638 17.5349C23.5449 16.616 22.2985 16.0998 20.999 16.0998C19.6994 16.0998 18.4531 16.616 17.5341 17.5349C16.6152 18.4539 16.099 19.7002 16.099 20.9998C16.099 22.2993 16.6152 23.5457 17.5341 24.4646C18.4531 25.3835 19.6994 25.8998 20.999 25.8998ZM20.999 27.9998C19.1424 27.9998 17.362 27.2623 16.0492 25.9495C14.7365 24.6367 13.999 22.8563 13.999 20.9998C13.999 19.1432 14.7365 17.3628 16.0492 16.05C17.362 14.7373 19.1424 13.9998 20.999 13.9998C22.8555 13.9998 24.636 14.7373 25.9487 16.05C27.2615 17.3628 27.999 19.1432 27.999 20.9998C27.999 22.8563 27.2615 24.6367 25.9487 25.9495C24.636 27.2623 22.8555 27.9998 20.999 27.9998Z" fill="#C6C6C6"/>
</svg>
